<?xml version="1.0" encoding="utf-8"?>
<!-- Generator: Adobe Illustrator 24.1.1, SVG Export Plug-In . SVG Version: 6.00 Build 0)  -->
<svg version="1.1" id="Layer_1" xmlns="http://www.w3.org/2000/svg" xmlns:xlink="http://www.w3.org/1999/xlink" x="0px" y="0px"
     viewBox="0 0 81 81" style="enable-background:new 0 0 81 81;" xml:space="preserve">
     <defs><style>.cls-1{fill:#231f20;}@media(prefers-color-scheme: dark){.cls-1{fill:#ffffff;}}</style></defs>
<g id="Layer_2_1_">
	<g id="Layer_1-2">
		<path class="cls-1" d="M40.5,81C18.1,81,0,62.9,0,40.5S18.1,0,40.5,0S81,18.1,81,40.5C81,62.8,62.9,81,40.5,81C40.6,81,40.5,81,40.5,81z M40.5,1
			C18.7,1,1,18.7,1,40.5S18.7,80,40.5,80c9.8,0,14.8-11.1,21.5-17.3c7-6.5,18-10.3,18-22.2C80,18.7,62.3,1,40.5,1z"/>
	</g>
</g>
<g>
	<path class="cls-1" d="M40.5,3C61.2,3,78,19.8,78,40.5S61.2,78,40.5,78S3,61.2,3,40.5S19.8,3,40.5,3 M40.5,0C18.1,0,0,18.1,0,40.5
		S18.1,81,40.5,81S81,62.9,81,40.5S62.9,0,40.5,0L40.5,0z"/>
</g>
</svg>
